<svg width="61" height="60" viewBox="0 0 61 60" fill="none" xmlns="http://www.w3.org/2000/svg">
<g clip-path="url(#clip0_11_8397)">
<path fill-rule="evenodd" clip-rule="evenodd" d="M39.0533 34.4415H41.4064C41.8869 34.4415 42.2795 34.8341 42.2795 35.3134V38.5091H45.474C45.9545 38.5091 46.3471 38.9017 46.3471 39.381V41.7341C46.3471 42.2146 45.9545 42.6071 45.474 42.6071H42.2795V45.8017C42.2795 46.281 41.8869 46.6735 41.4064 46.6735H39.0533C38.574 46.6735 38.1814 46.281 38.1814 45.8017V42.6071H34.9869C34.5053 42.6071 34.1139 42.2146 34.1139 41.7341V39.381C34.1139 38.9017 34.5053 38.5091 34.9869 38.5091H38.1814V35.3134C38.1814 34.8341 38.574 34.4415 39.0533 34.4415ZM40.2299 27.5239C41.3103 27.5239 42.3498 27.6552 43.3471 27.9001C43.4631 27.4606 43.3576 26.9685 43.0353 26.6204L33.4576 17.0462C32.9525 16.5364 32.1006 16.5212 31.5744 17.0064L17.2365 31.3478C16.7139 31.8692 16.7139 32.7446 17.2365 33.2661L26.7791 42.8087C26.9701 43.0009 27.2092 43.1228 27.4588 43.1731C27.2865 42.3282 27.1963 41.454 27.1963 40.5575C27.1963 36.9587 28.6553 33.6997 31.0143 31.3419C33.3721 28.9841 36.6311 27.5239 40.2299 27.5239ZM45.1436 28.4825C46.2885 28.9478 47.3478 29.5712 48.3041 30.3271L51.8701 26.761C51.7787 26.7142 51.6908 26.6509 51.6064 26.5665L50.2201 25.1802C50.1826 25.1427 50.1557 25.1099 50.1252 25.0712C49.4103 24.0704 50.7697 22.9548 51.6064 23.7915L52.9939 25.179C53.0303 25.2153 53.0572 25.2493 53.0877 25.288C53.1252 25.3407 53.158 25.3946 53.1838 25.4485L58.0541 20.5771C58.3436 20.3333 58.3271 19.8247 58.0728 19.5704L53.6537 15.1513C53.1373 15.3835 52.5929 15.5477 52.0342 15.6399C46.8873 16.4872 42.992 11.2677 45.0838 6.58018L40.667 2.16338C40.3869 1.88331 39.917 1.88682 39.6404 2.16338L34.7936 7.00909C34.8521 7.04776 34.9084 7.09346 34.9623 7.14854L36.3498 8.53604C36.3861 8.57237 36.4131 8.60518 36.4436 8.64385C37.1584 9.64463 35.8002 10.7603 34.9623 9.92237L33.576 8.53604C33.5396 8.49971 33.5127 8.46573 33.4822 8.42706L33.44 8.36378L8.54238 33.2603C8.62558 33.3048 8.70761 33.3669 8.78496 33.4442L10.1713 34.8306C10.2076 34.8669 10.2346 34.9009 10.265 34.9384C10.9799 35.9392 9.62168 37.0536 8.78496 36.2169L7.39746 34.8306C7.36113 34.7931 7.33418 34.7603 7.30254 34.7216C7.2709 34.6759 7.24277 34.629 7.21816 34.5845L2.36308 39.4407C2.08769 39.7114 2.09004 40.1942 2.36308 40.4673L6.74121 44.8454C7.26152 44.5888 7.81347 44.4024 8.3748 44.2958C12.8959 43.4251 16.7748 47.4048 15.9217 51.8438C15.8132 52.4107 15.6283 52.9603 15.3721 53.4774L19.7502 57.8544C20.0291 58.1356 20.5002 58.131 20.7768 57.8544L25.6178 53.0146C25.5521 52.9724 25.4889 52.922 25.4279 52.861L24.0404 51.4747C24.0053 51.4372 23.9783 51.4044 23.9467 51.3657C23.233 50.3649 24.59 49.2505 25.4279 50.0872L26.8143 51.4747C26.8518 51.5099 26.8775 51.545 26.9092 51.5825L26.9643 51.6681L29.9994 48.6329C29.1697 47.5653 28.4865 46.3724 28.0025 45.0774C27.0826 45.1513 26.1369 44.8396 25.442 44.1446L15.8994 34.6021C14.6432 33.3458 14.6432 31.2681 15.8994 30.0106L30.2631 15.6528C31.5264 14.4482 33.5525 14.4728 34.7889 15.7067L44.3912 25.3091C45.215 26.1786 45.4646 27.3997 45.1436 28.4825ZM49.7326 31.6384C51.9205 33.9692 53.2635 37.1075 53.2635 40.5575C53.2635 44.1563 51.8045 47.4153 49.4467 49.7731C47.0889 52.131 43.8275 53.5911 40.2299 53.5911C36.7799 53.5911 33.6404 52.247 31.3096 50.0591L22.1455 59.2243L22.0834 59.2665C21.0533 60.2579 19.3846 60.2439 18.3639 59.2243L13.4666 54.3282C13.142 54.0036 13.1033 53.4821 13.3506 53.1001C13.6365 52.6606 13.8439 52.1814 13.9635 51.688C14.7428 48.4501 11.8518 45.4196 8.52949 46.2165C8.04668 46.3314 7.57207 46.5341 7.14199 46.8095C6.95719 46.9472 6.72935 47.0146 6.49934 46.9996C6.26934 46.9846 6.05221 46.8881 5.88691 46.7274L0.975583 41.8185C-0.0462922 40.7954 -0.066214 39.1067 0.963864 38.0673L38.2541 0.775884C39.283 -0.253022 40.9787 -0.263569 42.0182 0.775884L46.9506 5.70713C47.26 6.01768 47.3103 6.51807 47.09 6.8919C45.024 10.179 47.9771 14.4728 51.8736 13.663C52.3518 13.5622 52.8217 13.3829 53.2541 13.1274C53.6467 12.8814 54.16 12.9177 54.4916 13.2493L59.424 18.1817C60.4588 19.2153 60.4588 20.9122 59.424 21.9458L49.7326 31.6384ZM39.1248 11.3099C38.2857 10.4732 36.9287 11.5876 37.6424 12.5884C37.674 12.6259 37.701 12.661 37.7361 12.6962L39.1236 14.0837C39.9615 14.9216 41.3197 13.806 40.6049 12.8052C40.5744 12.7665 40.5475 12.7337 40.5111 12.6962L39.1248 11.3099ZM43.285 15.47C42.4482 14.6333 41.0889 15.7478 41.8037 16.7497C41.8342 16.7872 41.8611 16.8212 41.8975 16.8575L43.285 18.245C44.1217 19.0817 45.4811 17.9661 44.765 16.9665C44.7357 16.9278 44.7088 16.8939 44.6713 16.8575L43.285 15.47ZM47.4463 19.6314C46.6084 18.7946 45.249 19.9103 45.965 20.9099C45.9955 20.9474 46.0225 20.9825 46.0588 21.0189L47.4451 22.4052C48.283 23.2431 49.6412 22.1274 48.9275 21.1267C48.8959 21.0892 48.8689 21.054 48.8326 21.0189L47.4463 19.6314ZM12.9451 37.6044C12.1084 36.7665 10.7502 37.8821 11.465 38.8829C11.4955 38.9204 11.5225 38.9556 11.5588 38.9907L12.9451 40.3771C13.7818 41.2161 15.1412 40.1005 14.4264 39.1009C14.3959 39.061 14.3689 39.0282 14.3314 38.9919L12.9451 37.6044ZM17.1064 41.7657C16.2686 40.929 14.9103 42.0423 15.6252 43.0442C15.6557 43.0817 15.6826 43.1157 15.7201 43.1521L17.1064 44.5396C17.9432 45.3763 19.3014 44.2606 18.5877 43.261C18.5561 43.2224 18.5291 43.1884 18.4939 43.1521L17.1064 41.7657ZM21.2666 45.9259C20.4299 45.0892 19.0728 46.2036 19.7865 47.2044C19.817 47.2419 19.8439 47.2771 19.8803 47.3122L21.2666 48.6997C22.1045 49.5364 23.4627 48.422 22.7478 47.4224C22.7174 47.3825 22.6904 47.3497 22.6541 47.3122L21.2666 45.9259ZM40.2299 29.4856C46.3459 29.4856 51.3029 34.4427 51.3029 40.5575C51.3029 46.6724 46.3459 51.6294 40.2299 51.6294C34.115 51.6294 29.158 46.6724 29.158 40.5575C29.158 34.4427 34.115 29.4856 40.2299 29.4856Z" fill="#0835A7"/>
</g>
<defs>
<clipPath id="clip0_11_8397">
<rect width="60" height="60" fill="white" transform="translate(0.199707)"/>
</clipPath>
</defs>
</svg>
