<svg width="61" height="60" viewBox="0 0 61 60" fill="none" xmlns="http://www.w3.org/2000/svg">
<g clip-path="url(#clip0_11_8402)">
<path fill-rule="evenodd" clip-rule="evenodd" d="M36.8648 38.3462L39.2929 40.6489L44.08 35.788C44.5265 35.3368 44.8054 34.9735 45.355 35.5396L47.1363 37.3653C47.721 37.9442 47.6906 38.2817 47.1386 38.8208L40.3113 45.5286C39.1464 46.67 39.3503 46.7403 38.1691 45.5696L33.866 41.2888C33.6199 41.0228 33.6468 40.7532 33.9164 40.4872L35.9847 38.3427C36.2976 38.0134 36.5472 38.0403 36.8648 38.3462ZM40.63 27.5239C41.7105 27.5239 42.75 27.6552 43.7472 27.9001C43.8632 27.4606 43.7578 26.9685 43.4355 26.6204L33.8578 17.0462C33.3527 16.5364 32.5007 16.5212 31.9746 17.0064L17.6367 31.3478C17.114 31.8692 17.114 32.7446 17.6367 33.2661L27.1792 42.8087C27.3703 43.0009 27.6093 43.1228 27.8589 43.1731C27.6867 42.3282 27.5964 41.454 27.5964 40.5575C27.5964 36.9587 29.0554 33.6997 31.4144 31.3419C33.7722 28.9841 37.0312 27.5239 40.63 27.5239ZM45.5437 28.4825C46.6886 28.9478 47.748 29.5712 48.7042 30.3271L52.2703 26.761C52.1789 26.7142 52.091 26.6509 52.0066 26.5665L50.6203 25.1802C50.5828 25.1427 50.5558 25.1099 50.5253 25.0712C49.8105 24.0704 51.1699 22.9548 52.0066 23.7915L53.3941 25.179C53.4304 25.2153 53.4574 25.2493 53.4878 25.288C53.5253 25.3407 53.5582 25.3946 53.5839 25.4485L58.4542 20.5771C58.7437 20.3333 58.7273 19.8247 58.473 19.5704L54.0539 15.1513C53.5374 15.3835 52.993 15.5477 52.4343 15.6399C47.2874 16.4872 43.3921 11.2677 45.4839 6.58018L41.0671 2.16338C40.7871 1.88331 40.3171 1.88682 40.0406 2.16338L35.1937 7.00909C35.2523 7.04776 35.3085 7.09346 35.3624 7.14854L36.75 8.53604C36.7863 8.57237 36.8132 8.60518 36.8437 8.64385C37.5585 9.64463 36.2003 10.7603 35.3624 9.92237L33.9761 8.53604C33.9398 8.49971 33.9128 8.46573 33.8824 8.42706L33.8402 8.36378L8.94253 33.2603C9.02573 33.3048 9.10776 33.3669 9.18511 33.4442L10.5714 34.8306C10.6078 34.8669 10.6347 34.9009 10.6652 34.9384C11.38 35.9392 10.0218 37.0536 9.18511 36.2169L7.7976 34.8306C7.76128 34.7931 7.73432 34.7603 7.70268 34.7216C7.67104 34.6759 7.64292 34.629 7.61831 34.5845L2.76323 39.4407C2.48784 39.7114 2.49018 40.1942 2.76323 40.4673L7.14135 44.8454C7.66167 44.5888 8.21362 44.4024 8.77495 44.2958C13.296 43.4251 17.1749 47.4048 16.3218 51.8438C16.2134 52.4107 16.0285 52.9603 15.7722 53.4774L20.1503 57.8544C20.4292 58.1356 20.9003 58.131 21.1769 57.8544L26.0179 53.0146C25.9523 52.9724 25.889 52.922 25.8281 52.861L24.4406 51.4747C24.4054 51.4372 24.3785 51.4044 24.3468 51.3657C23.6332 50.3649 24.9902 49.2505 25.8281 50.0872L27.2144 51.4747C27.2519 51.5099 27.2777 51.545 27.3093 51.5825L27.3644 51.6681L30.3996 48.6329C29.5699 47.5653 28.8867 46.3724 28.4027 45.0774C27.4828 45.1513 26.5371 44.8396 25.8421 44.1446L16.2996 34.6021C15.0433 33.3458 15.0433 31.2681 16.2996 30.0106L30.6632 15.6528C31.9265 14.4482 33.9527 14.4728 35.189 15.7067L44.7914 25.3091C45.6152 26.1786 45.8648 27.3997 45.5437 28.4825ZM50.1328 31.6384C52.3207 33.9692 53.6636 37.1075 53.6636 40.5575C53.6636 44.1563 52.2046 47.4153 49.8468 49.7731C47.489 52.131 44.2277 53.5911 40.63 53.5911C37.18 53.5911 34.0406 52.247 31.7097 50.0591L22.5457 59.2243L22.4835 59.2665C21.4535 60.2579 19.7847 60.2439 18.764 59.2243L13.8667 54.3282C13.5421 54.0036 13.5035 53.4821 13.7507 53.1001C14.0367 52.6606 14.2441 52.1814 14.3636 51.688C15.1429 48.4501 12.2519 45.4196 8.92964 46.2165C8.44682 46.3314 7.97221 46.5341 7.54214 46.8095C7.35733 46.9472 7.12949 47.0146 6.89949 46.9996C6.66948 46.9846 6.45236 46.8881 6.28706 46.7274L1.37573 41.8185C0.353854 40.7954 0.333932 39.1067 1.36401 38.0673L38.6542 0.775884C39.6832 -0.253022 41.3789 -0.263569 42.4183 0.775884L47.3507 5.70713C47.6601 6.01768 47.7105 6.51807 47.4902 6.8919C45.4242 10.179 48.3773 14.4728 52.2738 13.663C52.7519 13.5622 53.2218 13.3829 53.6542 13.1274C54.0468 12.8814 54.5601 12.9177 54.8917 13.2493L59.8242 18.1817C60.8589 19.2153 60.8589 20.9122 59.8242 21.9458L50.1328 31.6384ZM39.5249 11.3099C38.6859 10.4732 37.3289 11.5876 38.0425 12.5884C38.0742 12.6259 38.1011 12.661 38.1363 12.6962L39.5238 14.0837C40.3617 14.9216 41.7199 13.806 41.005 12.8052C40.9746 12.7665 40.9476 12.7337 40.9113 12.6962L39.5249 11.3099ZM43.6851 15.47C42.8484 14.6333 41.489 15.7478 42.2039 16.7497C42.2343 16.7872 42.2613 16.8212 42.2976 16.8575L43.6851 18.245C44.5218 19.0817 45.8812 17.9661 45.1652 16.9665C45.1359 16.9278 45.1089 16.8939 45.0714 16.8575L43.6851 15.47ZM47.8464 19.6314C47.0085 18.7946 45.6492 19.9103 46.3652 20.9099C46.3957 20.9474 46.4226 20.9825 46.4589 21.0189L47.8453 22.4052C48.6832 23.2431 50.0414 22.1274 49.3277 21.1267C49.296 21.0892 49.2691 21.054 49.2328 21.0189L47.8464 19.6314ZM13.3453 37.6044C12.5085 36.7665 11.1503 37.8821 11.8652 38.8829C11.8957 38.9204 11.9226 38.9556 11.9589 38.9907L13.3453 40.3771C14.182 41.2161 15.5414 40.1005 14.8265 39.1009C14.796 39.061 14.7691 39.0282 14.7316 38.9919L13.3453 37.6044ZM17.5066 41.7657C16.6687 40.929 15.3105 42.0423 16.0253 43.0442C16.0558 43.0817 16.0828 43.1157 16.1203 43.1521L17.5066 44.5396C18.3433 45.3763 19.7015 44.2606 18.9878 43.261C18.9562 43.2224 18.9292 43.1884 18.8941 43.1521L17.5066 41.7657ZM21.6667 45.9259C20.83 45.0892 19.473 46.2036 20.1867 47.2044C20.2171 47.2419 20.2441 47.2771 20.2804 47.3122L21.6667 48.6997C22.5046 49.5364 23.8628 48.422 23.148 47.4224C23.1175 47.3825 23.0906 47.3497 23.0542 47.3122L21.6667 45.9259ZM40.63 29.4856C46.746 29.4856 51.7031 34.4427 51.7031 40.5575C51.7031 46.6724 46.746 51.6294 40.63 51.6294C34.5152 51.6294 29.5582 46.6724 29.5582 40.5575C29.5582 34.4427 34.5152 29.4856 40.63 29.4856Z" fill="#14B8A6"/>
</g>
<defs>
<clipPath id="clip0_11_8402">
<rect width="60" height="60" fill="white" transform="translate(0.599854)"/>
</clipPath>
</defs>
</svg>
