<svg width="16" height="16" viewBox="0 0 16 16" fill="none" xmlns="http://www.w3.org/2000/svg">
<path d="M13.8571 13.784H2.14286C2.06429 13.784 2 13.8483 2 13.9269V14.9983C2 15.0769 2.06429 15.1412 2.14286 15.1412H13.8571C13.9357 15.1412 14 15.0769 14 14.9983V13.9269C14 13.8483 13.9357 13.784 13.8571 13.784ZM13.8571 0.855469H2.14286C2.06429 0.855469 2 0.919754 2 0.998326V2.06975C2 2.14833 2.06429 2.21261 2.14286 2.21261H13.8571C13.9357 2.21261 14 2.14833 14 2.06975V0.998326C14 0.919754 13.9357 0.855469 13.8571 0.855469ZM9.76429 5.60547C9.87143 5.60547 9.93214 5.48047 9.86607 5.39654L8.06607 3.11797C8.05416 3.10255 8.03887 3.09007 8.02138 3.08148C8.00389 3.07289 7.98466 3.06842 7.96518 3.06842C7.94569 3.06842 7.92647 3.07289 7.90898 3.08148C7.89149 3.09007 7.8762 3.10255 7.86429 3.11797L6.06429 5.39654C6.04929 5.4156 6.03997 5.43851 6.03739 5.46263C6.03481 5.48674 6.03907 5.5111 6.0497 5.53291C6.06032 5.55471 6.07687 5.57308 6.09745 5.58592C6.11803 5.59875 6.14182 5.60553 6.16607 5.60547H7.35714V10.3912H6.23571C6.12857 10.3912 6.06786 10.5162 6.13393 10.6001L7.93393 12.8769C7.98571 12.943 8.08571 12.943 8.13571 12.8769L9.93572 10.6001C10.0018 10.5162 9.94286 10.3912 9.83393 10.3912H8.64286V5.60547H9.76429Z" fill="black" fill-opacity="0.85"/>
</svg>
