<svg width="61" height="60" viewBox="0 0 61 60" fill="none" xmlns="http://www.w3.org/2000/svg">
<g clip-path="url(#clip0_11_8390)">
<path fill-rule="evenodd" clip-rule="evenodd" d="M41.2145 12.7955C41.1828 12.7569 41.1559 12.7229 41.1207 12.6877L39.7332 11.3002C38.8965 10.4624 37.5371 11.578 38.2508 12.5776C38.2824 12.6174 38.3094 12.6502 38.3469 12.6865L39.7332 14.074C40.5699 14.9119 41.9281 13.7963 41.2145 12.7955ZM45.3746 16.9568C45.3441 16.9181 45.3172 16.8853 45.2809 16.8478L43.8934 15.4615C43.0566 14.6248 41.6984 15.738 42.4133 16.74C42.4449 16.7775 42.4707 16.8115 42.507 16.8478L43.8934 18.2353C44.7313 19.072 46.0895 17.9564 45.3746 16.9568ZM49.5359 21.118C49.5078 21.0793 49.4762 21.0442 49.4422 21.0102L48.0559 19.6216C47.2168 18.7849 45.8598 19.9005 46.5734 20.9001C46.6051 20.9375 46.632 20.9727 46.6684 21.009L48.0559 22.3953C48.8926 23.2332 50.2508 22.1188 49.5359 21.118ZM15.0348 39.0907C15.0031 39.052 14.9762 39.0181 14.941 38.9829L13.5535 37.5943C12.7156 36.7575 11.3574 37.8732 12.0723 38.8739C12.1039 38.9126 12.1309 38.9454 12.166 38.9829L13.5535 40.3692C14.3902 41.2059 15.7484 40.0915 15.0348 39.0907ZM19.1949 43.252C19.1656 43.2133 19.1387 43.1793 19.1012 43.143L17.7148 41.7567C16.8781 40.9188 15.5188 42.0344 16.2324 43.0352C16.2641 43.0727 16.291 43.1066 16.3273 43.143L17.7148 44.5293C18.5516 45.3683 19.9109 44.2527 19.1949 43.252ZM23.3574 47.4132C23.3258 47.3734 23.2988 47.3405 23.2637 47.3042L21.875 45.9167C21.0383 45.08 19.6789 46.1945 20.3949 47.1964C20.4242 47.2339 20.4523 47.2679 20.4887 47.3042L21.875 48.6917C22.7117 49.5284 24.0711 48.4128 23.3574 47.4132ZM45.1555 25.4562L35.5578 15.8552C34.3004 14.599 32.2227 14.5978 30.9652 15.8541L16.6625 30.16C15.4074 31.4198 15.4051 33.4916 16.6625 34.749L26.2051 44.2914C26.4969 44.5832 26.8332 44.807 27.193 44.9629C27.1801 44.6957 27.173 44.4273 27.173 44.1566C27.173 43.6504 27.1977 43.1512 27.2445 42.6578L17.9996 33.4131C17.4781 32.8916 17.477 32.0139 17.9996 31.4924L32.3012 17.1911C32.8309 16.6626 33.6934 16.6638 34.2219 17.1923L43.7645 26.7335L43.7996 26.7675C44.2871 27.296 44.2742 28.1444 43.7645 28.653L43.7387 28.6788C44.4371 28.7257 45.1215 28.8183 45.7918 28.9554C46.2746 27.7999 46.0613 26.4124 45.1555 25.4562ZM49.5359 21.118C49.5078 21.0793 49.4762 21.0442 49.4422 21.0102L48.0559 19.6216C47.2168 18.7849 45.8598 19.9005 46.5734 20.9001C46.6051 20.9375 46.632 20.9727 46.6684 21.009L48.0559 22.3953C48.8926 23.2332 50.2508 22.1188 49.5359 21.118ZM35.5578 15.8552C34.3004 14.599 32.2227 14.5978 30.9652 15.8541L16.6625 30.16C15.4074 31.4198 15.4051 33.4916 16.6625 34.749L26.2051 44.2914C26.4969 44.5832 26.8332 44.807 27.193 44.9629C27.1801 44.6957 27.173 44.4273 27.173 44.1566C27.173 43.6504 27.1977 43.1512 27.2445 42.6578L17.9996 33.4131C17.4781 32.8916 17.477 32.0139 17.9996 31.4924L32.3012 17.1911C32.8309 16.6626 33.6934 16.6638 34.2219 17.1923L43.7645 26.7335L43.7996 26.7675C44.2871 27.296 44.2742 28.1444 43.7645 28.653L43.7387 28.6788C44.4371 28.7257 45.1215 28.8183 45.7918 28.9554C46.2746 27.7999 46.0613 26.4124 45.1555 25.4562L35.5578 15.8552ZM42.507 16.8478L43.8934 18.2353C44.7313 19.072 46.0895 17.9564 45.3746 16.9568C45.3441 16.9181 45.3172 16.8853 45.2809 16.8478L43.8934 15.4615C43.0566 14.6248 41.6984 15.738 42.4133 16.74C42.4449 16.7775 42.4707 16.8115 42.507 16.8478ZM38.3469 12.6865L39.7332 14.074C40.5699 14.9119 41.9281 13.7963 41.2145 12.7955C41.1828 12.7569 41.1559 12.7229 41.1207 12.6877L39.7332 11.3002C38.8965 10.4624 37.5371 11.578 38.2508 12.5776C38.2824 12.6174 38.3094 12.6502 38.3469 12.6865ZM23.2637 47.3042L21.875 45.9167C21.0383 45.08 19.6789 46.1945 20.3949 47.1964C20.4242 47.2339 20.4523 47.2679 20.4887 47.3042L21.875 48.6917C22.7117 49.5284 24.0711 48.4128 23.3574 47.4132C23.3258 47.3734 23.2988 47.3405 23.2637 47.3042ZM19.1012 43.143L17.7148 41.7567C16.8781 40.9188 15.5188 42.0344 16.2324 43.0352C16.2641 43.0727 16.291 43.1066 16.3273 43.143L17.7148 44.5293C18.5516 45.3683 19.9109 44.2527 19.1949 43.252C19.1656 43.2133 19.1387 43.1793 19.1012 43.143ZM14.941 38.9829L13.5535 37.5943C12.7156 36.7575 11.3574 37.8732 12.0723 38.8739C12.1039 38.9126 12.1309 38.9454 12.166 38.9829L13.5535 40.3692C14.3902 41.2059 15.7484 40.0915 15.0348 39.0907C15.0031 39.052 14.9762 39.0181 14.941 38.9829ZM60.0254 18.1825L55.1281 13.2854C54.957 13.1143 54.7332 13.0182 54.5059 13.0018C54.275 12.9854 54.0453 13.0522 53.859 13.1904C53.4277 13.4682 52.9531 13.6686 52.4703 13.7834C49.2184 14.5638 46.2395 11.6213 47.0375 8.31319C47.1594 7.81046 47.3656 7.33235 47.6492 6.89993C47.7723 6.70775 47.8238 6.47924 47.8051 6.26362C47.7863 6.04448 47.6926 5.8312 47.532 5.67183L42.6359 0.774663C41.6152 -0.241333 39.9535 -0.262426 38.9129 0.735992L38.8543 0.775835L1.57461 38.0548C0.537504 39.0919 0.546879 40.7922 1.57461 41.8188L6.50704 46.7511C6.66641 46.9117 6.87735 47.0101 7.10235 47.03C7.32149 47.0499 7.55235 46.9949 7.74571 46.873C8.17813 46.6187 8.64688 46.4382 9.125 46.3374C12.357 45.6636 15.1602 48.564 14.4711 51.7291C14.368 52.2108 14.1793 52.6783 13.9098 53.1084C13.7973 53.2994 13.7574 53.5186 13.7797 53.7248C13.8031 53.9369 13.8969 54.1431 14.0481 54.2931L18.9805 59.2255C20.0141 60.259 21.7121 60.259 22.7457 59.2255L29.5543 52.417C29.1898 51.8416 28.8641 51.2405 28.5781 50.617L27.5586 51.6366L27.5176 51.5733C27.4871 51.5358 27.459 51.5006 27.4238 51.4655L26.0363 50.078C25.1996 49.2413 23.8414 50.3569 24.5551 51.3565C24.5867 51.3952 24.6125 51.4291 24.6488 51.4655L26.0363 52.8518C26.0902 52.9057 26.1477 52.9525 26.2039 52.99L21.3582 57.8368C21.0863 58.1087 20.6047 58.1181 20.3328 57.8368L15.9148 53.4201C16.148 52.901 16.3121 52.3561 16.4035 51.7994C17.1195 47.4601 13.3731 43.6351 8.96446 44.3605C8.41016 44.4519 7.86407 44.6172 7.34493 44.8492L2.92579 40.4313C2.66914 40.1735 2.62344 39.6274 2.94454 39.4235L7.81485 34.5533C7.8418 34.606 7.87227 34.6599 7.91094 34.7127C7.94141 34.7513 7.96836 34.7853 8.00586 34.8205L9.39219 36.208C10.2289 37.0458 11.5883 35.9302 10.8734 34.9295C10.843 34.892 10.816 34.858 10.7797 34.8205L9.39219 33.4342C9.31485 33.3557 9.22579 33.29 9.12852 33.2397L34.0344 8.33428L34.0906 8.41748C34.1223 8.45615 34.1492 8.49014 34.1844 8.52646L35.5719 9.91276C36.4086 10.7495 37.768 9.63504 37.052 8.63427C37.0238 8.5956 36.9922 8.56045 36.9582 8.52646L35.5719 7.13899C35.5098 7.07805 35.4465 7.02884 35.382 6.98665L40.2242 2.14456C40.4996 1.86917 40.973 1.86917 41.2484 2.14456L45.6266 6.52377C45.3711 7.04173 45.1859 7.59015 45.077 8.15733C44.2098 12.6725 48.1707 16.5619 52.6262 15.7052C53.1875 15.5974 53.7395 15.4123 54.2598 15.1556L58.6391 19.5337C58.9133 19.8079 58.9133 20.2837 58.6379 20.559L53.7816 25.4152C53.757 25.3695 53.7289 25.325 53.6973 25.2781C53.6668 25.2406 53.6398 25.2054 53.6023 25.1703L52.216 23.7828C51.3793 22.9461 50.0211 24.0605 50.7359 25.0613C50.7652 25.1 50.7934 25.1328 50.8297 25.1703L52.216 26.5566C52.2934 26.6339 52.3742 26.6949 52.4574 26.7394L49.1469 30.0487C49.7703 30.3346 50.3715 30.6604 50.9469 31.0249L60.0254 21.9465C61.0578 20.9141 61.0578 19.2149 60.0254 18.1825ZM49.5359 21.118C49.5078 21.0793 49.4762 21.0442 49.4422 21.0102L48.0559 19.6216C47.2168 18.7849 45.8598 19.9005 46.5734 20.9001C46.6051 20.9375 46.632 20.9727 46.6684 21.009L48.0559 22.3953C48.8926 23.2332 50.2508 22.1188 49.5359 21.118ZM35.5578 15.8552C34.3004 14.599 32.2227 14.5978 30.9652 15.8541L16.6625 30.16C15.4074 31.4198 15.4051 33.4916 16.6625 34.749L26.2051 44.2914C26.4969 44.5832 26.8332 44.807 27.193 44.9629C27.1801 44.6957 27.173 44.4273 27.173 44.1566C27.173 43.6504 27.1977 43.1512 27.2445 42.6578L17.9996 33.4131C17.4781 32.8916 17.477 32.0139 17.9996 31.4924L32.3012 17.1911C32.8309 16.6626 33.6934 16.6638 34.2219 17.1923L43.7645 26.7335L43.7996 26.7675C44.2871 27.296 44.2742 28.1444 43.7645 28.653L43.7387 28.6788C44.4371 28.7257 45.1215 28.8183 45.7918 28.9554C46.2746 27.7999 46.0613 26.4124 45.1555 25.4562L35.5578 15.8552ZM43.8934 18.2353C44.7313 19.072 46.0895 17.9564 45.3746 16.9568C45.3441 16.9181 45.3172 16.8853 45.2809 16.8478L43.8934 15.4615C43.0566 14.6248 41.6984 15.738 42.4133 16.74C42.4449 16.7775 42.4707 16.8115 42.507 16.8478L43.8934 18.2353ZM39.7332 14.074C40.5699 14.9119 41.9281 13.7963 41.2145 12.7955C41.1828 12.7569 41.1559 12.7229 41.1207 12.6877L39.7332 11.3002C38.8965 10.4624 37.5371 11.578 38.2508 12.5776C38.2824 12.6174 38.3094 12.6502 38.3469 12.6865L39.7332 14.074ZM21.875 45.9167C21.0383 45.08 19.6789 46.1945 20.3949 47.1964C20.4242 47.2339 20.4523 47.2679 20.4887 47.3042L21.875 48.6917C22.7117 49.5284 24.0711 48.4128 23.3574 47.4132C23.3258 47.3734 23.2988 47.3405 23.2637 47.3042L21.875 45.9167ZM17.7148 41.7567C16.8781 40.9188 15.5188 42.0344 16.2324 43.0352C16.2641 43.0727 16.291 43.1066 16.3273 43.143L17.7148 44.5293C18.5516 45.3683 19.9109 44.2527 19.1949 43.252C19.1656 43.2133 19.1387 43.1793 19.1012 43.143L17.7148 41.7567ZM13.5535 37.5943C12.7156 36.7575 11.3574 37.8732 12.0723 38.8739C12.1039 38.9126 12.1309 38.9454 12.166 38.9829L13.5535 40.3692C14.3902 41.2059 15.7484 40.0915 15.0348 39.0907C15.0031 39.052 14.9762 39.0181 14.941 38.9829L13.5535 37.5943Z" fill="#E64F2D"/>
<path d="M29.8076 43.7887C29.8076 36.8959 35.415 31.2886 42.308 31.2886C43.1576 31.2886 44.0084 31.3753 44.8346 31.5452C45.3982 31.6612 45.7604 32.212 45.6455 32.7757C45.5307 33.3393 44.9811 33.7026 44.415 33.5866C43.726 33.4448 43.017 33.3733 42.308 33.3733C36.5647 33.3733 31.8912 38.0466 31.8912 43.7911C31.8912 49.5343 36.5647 54.2077 42.308 54.2077C42.9783 54.2077 43.6486 54.1444 44.3002 54.0178C44.8686 53.91 45.4111 54.278 45.5201 54.8428C45.6291 55.4076 45.26 55.9537 44.6951 56.0627C43.9135 56.2139 43.1107 56.29 42.3092 56.29C35.4162 56.29 29.8088 50.6827 29.8088 43.7899L29.8076 43.7887ZM42.3221 37.5416C42.3221 37.5416 42.3139 37.5381 42.308 37.5381C42.3021 37.5381 42.2986 37.5416 42.2939 37.5416C41.7068 37.5451 41.1197 37.7701 40.6709 38.2166L37.4037 41.4895C36.9971 41.8973 36.9971 42.5571 37.4061 42.9637C37.8139 43.3704 38.4713 43.3704 38.8791 42.9637L41.2662 40.5708V48.9988C41.2662 49.5742 41.7326 50.0406 42.308 50.0406C42.8834 50.0406 43.3498 49.5742 43.3498 48.9988V40.572L45.7369 42.9649C46.1436 43.3715 46.8021 43.3727 47.2111 42.9649C47.6178 42.5571 47.6189 41.8985 47.2111 41.4907L43.9439 38.2166C43.4963 37.7689 42.9092 37.5451 42.3209 37.5416H42.3221ZM48.2986 35.2658C48.8822 35.676 49.426 36.1494 49.9146 36.6697C50.3072 37.0904 50.967 37.1115 51.3865 36.7178C51.8061 36.3252 51.8283 35.6654 51.4346 35.2459C50.8486 34.6213 50.1971 34.0541 49.4986 33.562C49.3158 33.4342 49.1072 33.3721 48.8998 33.3721C48.5717 33.3721 48.2494 33.5268 48.0467 33.8139C47.715 34.285 47.8275 34.9342 48.2986 35.2658ZM52.5502 41.8856C52.6545 42.4516 53.1971 42.8278 53.7643 42.7212C54.3303 42.6169 54.7041 42.0731 54.5998 41.5071C54.4533 40.7138 54.2295 39.9322 53.9318 39.1857C53.7689 38.7767 53.3775 38.5271 52.9627 38.5271C52.8361 38.5271 52.7049 38.5505 52.5795 38.6009C52.0439 38.8119 51.7826 39.4189 51.9947 39.9532C52.242 40.5755 52.4283 41.2247 52.5502 41.8856ZM48.0443 53.7647C48.376 54.2346 49.024 54.3483 49.4963 54.0166C50.1947 53.5245 50.8475 52.9573 51.4322 52.3327C51.826 51.9132 51.8037 51.2534 51.3842 50.8608C51.1826 50.671 50.9271 50.5784 50.6717 50.5784C50.3951 50.5784 50.1174 50.6886 49.9123 50.9077C49.4236 51.428 48.8799 51.9015 48.2963 52.3116C47.8264 52.6432 47.7127 53.2924 48.0443 53.7635V53.7647ZM51.9959 47.6242C51.7838 48.1586 52.0451 48.7632 52.5807 48.9765C53.1186 49.1898 53.7209 48.9273 53.933 48.3918C54.2295 47.6453 54.4533 46.8637 54.601 46.0703C54.7053 45.5043 54.3314 44.9606 53.7654 44.8563C53.701 44.8434 53.6377 44.8387 53.5744 44.8387C53.0822 44.8387 52.6439 45.1903 52.5514 45.6906C52.4295 46.3516 52.2432 47.0008 51.9959 47.623V47.6242Z" fill="#E64F2D"/>
</g>
<defs>
<clipPath id="clip0_11_8390">
<rect width="60" height="60" fill="white" transform="translate(0.799805)"/>
</clipPath>
</defs>
</svg>
