<svg width="62" height="60" viewBox="0 0 62 60" fill="none" xmlns="http://www.w3.org/2000/svg">
<g clip-path="url(#clip0_11_8414)">
<path fill-rule="evenodd" clip-rule="evenodd" d="M5.85588 39.0497L41.1947 3.46306L41.2504 3.42526C41.4817 3.20211 41.7481 3.03018 42.029 2.91434C42.6466 2.65949 43.3453 2.66071 43.9641 2.91434C44.2694 3.04131 44.5468 3.22779 44.7803 3.46306L49.4218 8.13698C49.5713 8.28855 49.6627 8.48858 49.6797 8.70156C49.6979 8.90763 49.6494 9.1259 49.532 9.30881C49.2607 9.72828 49.0646 10.1868 48.9532 10.6575C48.1963 13.8169 51.0202 16.6251 54.1033 15.8801C54.561 15.7703 55.0103 15.5789 55.4183 15.3143C55.595 15.1821 55.8128 15.1181 56.0323 15.1338C56.2478 15.1497 56.4598 15.2411 56.622 15.4045L61.2648 20.0797C61.5045 20.3211 61.6874 20.6016 61.8085 20.9003C61.934 21.2101 61.9989 21.5413 61.9998 21.8758C61.9989 22.2104 61.934 22.5416 61.8085 22.8513C61.6874 23.1489 61.5045 23.4305 61.2648 23.672L25.9247 59.2586C25.6915 59.4934 25.4146 59.6794 25.1098 59.8061C24.8026 59.934 24.4735 59.9999 24.141 60C23.8129 60 23.4823 59.9354 23.1723 59.8061C22.8744 59.6842 22.5959 59.4988 22.3561 59.2586L17.6807 54.5506C17.5366 54.4067 17.4482 54.2103 17.4264 54.0079C17.4046 53.8116 17.4433 53.6007 17.5487 53.4202C17.8054 53.0092 17.9834 52.5617 18.0815 52.102C18.7342 49.0816 16.0774 46.3136 13.0137 46.9562C12.5596 47.0525 12.1152 47.2245 11.7047 47.4671C11.5233 47.5826 11.3094 47.6353 11.0956 47.6171C10.8823 47.5982 10.6824 47.5041 10.5313 47.3513L5.85588 42.642C5.62172 42.4073 5.43646 42.1279 5.31096 41.8201C5.1851 41.5109 5.12012 41.18 5.11963 40.8459C5.11963 40.5166 5.18381 40.1849 5.31096 39.8716C5.43705 39.5641 5.62224 39.2848 5.85588 39.0497ZM39.3456 3.20211L38.1019 4.4715L35.6086 1.962C35.4246 1.77665 35.1255 1.723 34.8869 1.82055C34.8118 1.85225 34.7392 1.90103 34.6774 1.962L30.2793 6.39081C30.3374 6.42862 30.3955 6.47373 30.4524 6.53104L31.7118 7.79921C31.7457 7.83335 31.7699 7.86262 31.7966 7.89798C32.4469 8.81374 31.2117 9.83315 30.4524 9.06737L29.1906 7.79921C29.158 7.76628 29.1349 7.73458 29.1059 7.69922L29.055 7.6224L7.56694 29.2629C7.65049 29.3056 7.7292 29.3629 7.80549 29.4397L9.06487 30.7091C9.09877 30.7432 9.1242 30.7737 9.15085 30.8078C9.80112 31.7248 8.56596 32.7442 7.80549 31.9785C7.47006 31.6382 6.56792 30.8566 6.37295 30.464L1.94819 34.9208L1.87795 34.9635C1.73991 35.1489 1.70358 35.4147 1.79198 35.6305C1.82104 35.7073 1.87069 35.7793 1.93124 35.8403L3.56116 37.4816L3.08768 39.5118L0.703345 37.1096C0.478609 36.885 0.301107 36.6171 0.181431 36.3219C-0.0607566 35.7281 -0.0595456 35.0501 0.181431 34.4563C0.301082 34.1607 0.478577 33.8924 0.703345 33.6673L33.4338 0.709684L33.4871 0.673102C33.7087 0.45849 33.963 0.293873 34.233 0.182908C34.8251 -0.0609694 35.4948 -0.0609694 36.0869 0.182908C36.3703 0.29997 36.6379 0.476781 36.868 0.708465L39.3456 3.20211ZM53.8611 28.074C53.9349 28.1471 54.0112 28.2045 54.0899 28.2471L30.4876 52.0142L30.4488 51.9545C30.4198 51.9179 30.3931 51.885 30.3592 51.8508L29.0453 50.5266C28.251 49.7279 26.9637 50.7924 27.6406 51.7472C27.6697 51.7838 27.6951 51.8167 27.729 51.8508L29.0453 53.1739C29.0962 53.2263 29.1495 53.2702 29.204 53.3068L24.6097 57.9331C24.5443 57.9978 24.4692 58.049 24.3917 58.0807C24.3069 58.1148 24.2149 58.1331 24.1229 58.1331C24.0369 58.1331 23.9424 58.1136 23.8553 58.077C23.7753 58.0453 23.6978 57.9965 23.6385 57.9331L19.4499 53.7165C19.6699 53.2229 19.8258 52.7028 19.9137 52.1691C20.5918 48.0268 17.0401 44.376 12.8612 45.0698C12.3356 45.1552 11.8185 45.3137 11.3257 45.5356L7.13706 41.3178C7.07288 41.2519 7.02202 41.1775 6.99174 41.097C6.95784 41.0166 6.94088 40.9239 6.94088 40.8276C6.94088 40.6812 6.98932 40.5264 7.08256 40.402L7.15401 40.3569L11.7713 35.7073C11.7967 35.7573 11.8258 35.8086 11.8621 35.8586C11.8912 35.8964 11.9166 35.9281 11.9517 35.9622L13.2668 37.2865C14.06 38.0864 15.3484 37.0218 14.6703 36.0658C14.6424 36.0293 14.6158 35.9976 14.5819 35.9622L13.2668 34.6379C13.1933 34.564 13.1092 34.5015 13.0174 34.4526L36.627 10.6782L36.6803 10.7574C36.7094 10.794 36.7348 10.8269 36.7687 10.8611L38.0838 12.1853C38.8769 12.984 40.1654 11.9195 39.4873 10.9647C39.4582 10.9282 39.4328 10.8965 39.3976 10.8611L38.0838 9.53806C38.0257 9.47952 37.9651 9.43197 37.9033 9.39295L42.494 4.77025C42.557 4.70684 42.6333 4.65562 42.712 4.6227C42.9614 4.52027 43.2739 4.57758 43.4652 4.77025L47.6151 8.95031C47.3726 9.44422 47.1975 9.96882 47.0944 10.5099C46.2721 14.8204 50.0273 18.5323 54.251 17.7141C54.7826 17.6116 55.3057 17.4348 55.7998 17.1897L59.9497 21.3686C60.0127 21.4312 60.0622 21.5064 60.095 21.5893C60.1277 21.671 60.1446 21.7636 60.1446 21.8588C60.1446 22.0307 60.0792 22.2173 59.9485 22.3489L55.3457 26.9838C55.3227 26.9399 55.296 26.8973 55.2658 26.8534C55.2367 26.8168 55.2113 26.7839 55.1762 26.7497L53.8611 25.4255C53.0679 24.6268 51.7807 25.6901 52.4576 26.6461C52.4867 26.6827 52.5133 26.7144 52.5472 26.7497L53.8611 28.074ZM38.0705 17.8579L47.1682 27.0229C47.7313 27.6204 48.0147 28.391 48.0147 29.158C48.0147 29.9531 47.7144 30.7493 47.1162 31.3505L33.5585 45.0027C32.9615 45.6051 32.1696 45.9075 31.3824 45.9075C30.5929 45.9075 29.8022 45.6051 29.2052 45.0027L20.1595 35.8939C19.5613 35.2928 19.261 34.4965 19.261 33.7015C19.261 32.9113 19.5613 32.1162 20.1595 31.5127L33.7171 17.8567C34.3165 17.2531 35.1061 16.9519 35.8944 16.9519C36.6827 16.9556 37.4747 17.258 38.0705 17.8579ZM45.8495 28.2423L36.8038 19.1346C36.6846 19.014 36.5429 18.9182 36.3868 18.8527C36.2308 18.7872 36.0635 18.7533 35.8944 18.753C35.5638 18.7566 35.2332 18.8822 34.9838 19.1334L21.4261 32.7857C21.1779 33.0344 21.0531 33.3673 21.0531 33.7015C21.0531 34.0343 21.1779 34.3685 21.4261 34.6184L30.4718 43.7273C30.7201 43.9772 31.0519 44.1028 31.3824 44.1028C31.713 44.1028 32.0436 43.9772 32.2919 43.7273L45.8495 30.075C46.0978 29.825 46.2225 29.4909 46.2225 29.158C46.2225 28.8398 46.1087 28.5203 45.8834 28.274L45.8495 28.2423ZM25.1001 49.2035C25.8933 50.0022 27.1817 48.9377 26.5048 47.9829C26.4745 47.9451 26.4491 47.9134 26.4152 47.8793L25.1001 46.5538C24.3069 45.7551 23.0185 46.8196 23.6966 47.7756C23.7245 47.8122 23.7511 47.8439 23.785 47.8793L25.1001 49.2035ZM21.1561 45.2308C21.9492 46.0307 23.2377 44.9662 22.5596 44.0102C22.5305 43.9736 22.5051 43.9419 22.4699 43.9065L21.1561 42.5823C20.3629 41.7836 19.0745 42.8481 19.7514 43.8029C19.7805 43.8395 19.8059 43.8724 19.841 43.9065L21.1561 45.2308ZM17.2108 41.2592C18.004 42.0579 19.2924 40.9934 18.6155 40.0386C18.5865 40.0008 18.561 39.9691 18.5271 39.935L17.2108 38.6095C16.4177 37.8108 15.1292 38.8753 15.8074 39.8313C15.8364 39.8679 15.8619 39.8996 15.8958 39.935L17.2108 41.2592ZM49.9171 24.1012C50.7114 24.9011 51.9987 23.8366 51.3217 22.8818C51.2915 22.844 51.266 22.8123 51.2321 22.7782L49.9171 21.4527C49.1227 20.654 47.8355 21.7185 48.5124 22.6733C48.5426 22.7099 48.5681 22.7428 48.6032 22.777L49.9171 24.1012ZM45.973 20.1297C46.7662 20.9284 48.0546 19.8638 47.3765 18.9091C47.3474 18.8725 47.322 18.8408 47.2869 18.8054L45.973 17.4824C45.1787 16.6825 43.8914 17.747 44.5683 18.7018C44.5986 18.7383 44.6241 18.77 44.658 18.8054L45.973 20.1297ZM42.029 16.1581C42.8222 16.9568 44.1094 15.8923 43.4325 14.9375C43.4022 14.8997 43.3768 14.868 43.3429 14.8339L42.029 13.5096C41.2346 12.7097 39.9474 13.7754 40.6243 14.729C40.6534 14.7668 40.6788 14.7985 40.7139 14.8326L42.029 16.1581Z" fill="#122B31"/>
</g>
<defs>
<clipPath id="clip0_11_8414">
<rect width="62" height="60" fill="white" transform="translate(-0.000244141)"/>
</clipPath>
</defs>
</svg>
