<svg width="14" height="16" viewBox="0 0 14 16" fill="none" xmlns="http://www.w3.org/2000/svg">
<path d="M7.72252 3.16744H11.6239C12.0285 3.16744 12.2308 3.16744 12.3861 3.24619C12.5218 3.31557 12.632 3.42608 12.7011 3.56191C12.7799 3.71652 12.7799 3.91881 12.7799 4.3234V4.86165C12.7799 5.03504 12.7799 5.12174 12.7604 5.2041C12.7423 5.2778 12.7127 5.3486 12.6737 5.41362C12.6289 5.48587 12.566 5.54872 12.441 5.67371L11.3349 6.77983M3.74889 3.16744H2.37618C1.97159 3.16744 1.7693 3.16744 1.61469 3.24619C1.47875 3.31545 1.36823 3.42597 1.29897 3.56191C1.22021 3.71652 1.22021 3.91881 1.22021 4.3234V4.85587C1.22021 5.03288 1.22021 5.12102 1.24044 5.2041C1.25814 5.27807 1.28739 5.34878 1.32714 5.41362C1.37121 5.48587 1.43407 5.54872 1.55833 5.67371L5.21624 9.3309C5.34123 9.45589 5.40409 9.51874 5.44816 9.59099C5.4879 9.65602 5.51752 9.72682 5.53486 9.80051C5.55509 9.88287 5.55509 9.97029 5.55509 10.143V13.5791C5.55509 14.1982 5.55509 14.5082 5.68513 14.6946C5.74155 14.7752 5.81385 14.8434 5.89758 14.8951C5.98132 14.9468 6.07473 14.9808 6.17208 14.9951C6.39677 15.0284 6.67421 14.8904 7.22762 14.6129L7.80561 14.3239C8.03824 14.2084 8.15384 14.1506 8.23837 14.0639C8.31337 13.9873 8.37039 13.895 8.40526 13.7937C8.445 13.6795 8.445 13.5495 8.445 13.2901V10.1487C8.445 9.97174 8.445 9.8836 8.46523 9.80051C8.4829 9.72654 8.51216 9.65582 8.55193 9.59099C8.596 9.51874 8.65813 9.45661 8.7824 9.33235L8.78384 9.3309L9.52872 8.58675L1.94269 1M9.52872 8.58602L12.0574 11.1147" stroke="#191127" stroke-width="1.4" stroke-linecap="round" stroke-linejoin="round"/>
</svg>
