<svg width="18" height="18" viewBox="0 0 18 18" fill="none" xmlns="http://www.w3.org/2000/svg">
<path d="M15.7895 12.7463L14.8276 11.3625C14.6963 11.1744 14.6257 10.9506 14.6251 10.7212V6.75C14.6251 5.25816 14.0325 3.82742 12.9776 2.77252C11.9227 1.71763 10.492 1.125 9.00012 1.125C7.50828 1.125 6.07754 1.71763 5.02264 2.77252C3.96775 3.82742 3.37512 5.25816 3.37512 6.75V10.7212C3.37458 10.9506 3.30392 11.1744 3.17262 11.3625L2.21075 12.7463C2.0651 12.9076 1.96933 13.1077 1.93501 13.3224C1.90069 13.537 1.92929 13.757 2.01735 13.9558C2.10542 14.1545 2.24917 14.3235 2.43124 14.4422C2.6133 14.561 2.82587 14.6245 3.04325 14.625H6.24387C6.37297 15.2608 6.71791 15.8324 7.22023 16.243C7.72255 16.6535 8.35136 16.8778 9.00012 16.8778C9.64888 16.8778 10.2777 16.6535 10.78 16.243C11.2823 15.8324 11.6273 15.2608 11.7564 14.625H14.957C15.1744 14.6245 15.3869 14.561 15.569 14.4422C15.7511 14.3235 15.8948 14.1545 15.9829 13.9558C16.071 13.757 16.0996 13.537 16.0652 13.3224C16.0309 13.1077 15.9351 12.9076 15.7895 12.7463ZM9.00012 15.75C8.65196 15.749 8.31263 15.6404 8.02865 15.439C7.74466 15.2376 7.52992 14.9532 7.41387 14.625H10.5864C10.4703 14.9532 10.2556 15.2376 9.97159 15.439C9.68761 15.6404 9.34828 15.749 9.00012 15.75ZM3.04325 13.5C3.06867 13.4764 3.09132 13.45 3.11075 13.4213L4.09512 12.0037C4.35772 11.6275 4.49903 11.18 4.50012 10.7212V6.75C4.50012 5.55653 4.97423 4.41193 5.81814 3.56802C6.66205 2.72411 7.80665 2.25 9.00012 2.25C10.1936 2.25 11.3382 2.72411 12.1821 3.56802C13.026 4.41193 13.5001 5.55653 13.5001 6.75V10.7212C13.5012 11.18 13.6425 11.6275 13.9051 12.0037L14.8895 13.4213C14.9089 13.45 14.9316 13.4764 14.957 13.5H3.04325Z" fill="#111928"/>
</svg>
