<svg width="60" height="60" viewBox="0 0 60 60" fill="none" xmlns="http://www.w3.org/2000/svg">
<path d="M26.25 7.5C28.8459 7.5 31.3835 8.26977 33.5419 9.71196C35.7003 11.1542 37.3825 13.204 38.3759 15.6023C39.3693 18.0006 39.6292 20.6396 39.1228 23.1856C38.6164 25.7316 37.3663 28.0702 35.5308 29.9058C33.6952 31.7413 31.3566 32.9914 28.8106 33.4978C26.2646 34.0042 23.6256 33.7443 21.2273 32.7509C18.829 31.7575 16.7792 30.0753 15.337 27.9169C13.8948 25.7585 13.125 23.2209 13.125 20.625C13.125 17.144 14.5078 13.8056 16.9692 11.3442C19.4306 8.88281 22.769 7.5 26.25 7.5ZM26.25 3.75C22.9124 3.75 19.6498 4.7397 16.8748 6.59395C14.0997 8.4482 11.9368 11.0837 10.6595 14.1672C9.38231 17.2507 9.04813 20.6437 9.69926 23.9171C10.3504 27.1906 11.9576 30.1974 14.3176 32.5574C16.6776 34.9174 19.6844 36.5246 22.9579 37.1758C26.2313 37.8269 29.6243 37.4927 32.7078 36.2155C35.7913 34.9382 38.4268 32.7753 40.2811 30.0002C42.1353 27.2252 43.125 23.9626 43.125 20.625C43.125 16.1495 41.3471 11.8572 38.1824 8.69257C35.0178 5.5279 30.7255 3.75 26.25 3.75Z" fill="#4D2DED"/>
<path d="M52.5 20.6254C52.5023 17.1784 51.8235 13.7648 50.5026 10.5809C49.1818 7.39698 47.2448 4.5054 44.8031 2.07227L42.15 4.72539C46.3628 8.93637 48.7329 14.6467 48.7402 20.6031C48.7475 26.5596 46.3914 32.2757 42.189 36.497C37.9865 40.7183 32.2811 43.1 26.3246 43.1193C20.3682 43.1387 14.6473 40.7942 10.4175 36.6004L10.3463 36.5291L7.69501 39.1804C10.1285 41.622 13.0205 43.5587 16.2047 44.8792C19.389 46.1998 22.8028 46.8782 26.25 46.8754V52.5004H18.75V56.2504H37.5V52.5004H30V46.5754C36.2406 45.6707 41.9476 42.5513 46.0785 37.787C50.2095 33.0226 52.4887 26.9312 52.5 20.6254Z" fill="#4D2DED"/>
</svg>
