<svg width="16" height="16" viewBox="0 0 16 16" fill="none" xmlns="http://www.w3.org/2000/svg">
<path d="M8.5 10.5H5V7H8.5V10.5ZM6 9.5H7.5V8H6V9.5ZM8.5 15H5V11.5H8.5V15ZM6 14H7.5V12.5H6V14ZM13 10.5H9.5V7H13V10.5ZM10.5 9.5H12V8H10.5V9.5ZM13 15H9.5V11.5H13V15ZM10.5 14H12V12.5H10.5V14Z" fill="white"/>
<path d="M4 14H2C1.73486 13.9997 1.48066 13.8943 1.29319 13.7068C1.10571 13.5193 1.00026 13.2651 1 13V3C1.00026 2.73487 1.10571 2.48067 1.29319 2.29319C1.48066 2.10571 1.73486 2.00027 2 2H5.793C5.92437 1.99965 6.0545 2.02536 6.17586 2.07566C6.29722 2.12595 6.40739 2.19983 6.5 2.293L8.207 4H14C14.2651 4.00027 14.5193 4.10571 14.7068 4.29319C14.8943 4.48067 14.9997 4.73487 15 5V9H14V5H7.793L5.793 3H2V13H4V14Z" fill="white"/>
</svg>
