<svg width="16" height="17" viewBox="0 0 16 17" fill="none" xmlns="http://www.w3.org/2000/svg">
<path d="M14.5 7.5C14.6326 7.5 14.7598 7.44732 14.8536 7.35355C14.9473 7.25979 15 7.13261 15 7V4.5C15 4.23478 14.8946 3.98043 14.7071 3.79289C14.5196 3.60536 14.2652 3.5 14 3.5H2C1.73478 3.5 1.48043 3.60536 1.29289 3.79289C1.10536 3.98043 1 4.23478 1 4.5V7C1 7.13261 1.05268 7.25979 1.14645 7.35355C1.24021 7.44732 1.36739 7.5 1.5 7.5C1.76522 7.5 2.01957 7.60536 2.20711 7.79289C2.39464 7.98043 2.5 8.23478 2.5 8.5C2.5 8.76522 2.39464 9.01957 2.20711 9.20711C2.01957 9.39464 1.76522 9.5 1.5 9.5C1.36739 9.5 1.24021 9.55268 1.14645 9.64645C1.05268 9.74021 1 9.86739 1 10V12.5C1 12.7652 1.10536 13.0196 1.29289 13.2071C1.48043 13.3946 1.73478 13.5 2 13.5H14C14.2652 13.5 14.5196 13.3946 14.7071 13.2071C14.8946 13.0196 15 12.7652 15 12.5V10C15 9.86739 14.9473 9.74021 14.8536 9.64645C14.7598 9.55268 14.6326 9.5 14.5 9.5C14.2348 9.5 13.9804 9.39464 13.7929 9.20711C13.6054 9.01957 13.5 8.76522 13.5 8.5C13.5 8.23478 13.6054 7.98043 13.7929 7.79289C13.9804 7.60536 14.2348 7.5 14.5 7.5ZM14 10.435V12.5H10.5V11H9.5V12.5H2V10.435C2.428 10.3231 2.80683 10.0725 3.07721 9.7224C3.34759 9.37227 3.49426 8.94238 3.49426 8.5C3.49426 8.05762 3.34759 7.62773 3.07721 7.2776C2.80683 6.92747 2.428 6.67686 2 6.565V4.5H9.5V6H10.5V4.5H14V6.565C13.572 6.67686 13.1932 6.92747 12.9228 7.2776C12.6524 7.62773 12.5057 8.05762 12.5057 8.5C12.5057 8.94238 12.6524 9.37227 12.9228 9.7224C13.1932 10.0725 13.572 10.3231 14 10.435Z" fill="white"/>
<path d="M9.5 7H10.5V10H9.5V7Z" fill="white"/>
</svg>
