<svg width="16" height="16" viewBox="0 0 16 16" fill="none" xmlns="http://www.w3.org/2000/svg">
<path d="M13.9999 8C13.9977 6.4963 13.4314 5.04815 12.413 3.9418C11.3946 2.83546 9.99823 2.15145 8.49986 2.025V1H7.49986V2.025C5.9996 2.14785 4.60047 2.83059 3.58044 3.93756C2.56041 5.04454 1.99414 6.49473 1.99414 8C1.99414 9.50527 2.56041 10.9555 3.58044 12.0624C4.60047 13.1694 5.9996 13.8521 7.49986 13.975V15H8.49986V13.975C9.99823 13.8485 11.3946 13.1645 12.413 12.0582C13.4314 10.9519 13.9977 9.5037 13.9999 8ZM7.99986 13V3C9.32594 3 10.5977 3.52678 11.5354 4.46447C12.4731 5.40215 12.9999 6.67392 12.9999 8C12.9999 9.32608 12.4731 10.5979 11.5354 11.5355C10.5977 12.4732 9.32594 13 7.99986 13Z" fill="white"/>
</svg>
