<svg width="15" height="16" viewBox="0 0 15 16" fill="none" xmlns="http://www.w3.org/2000/svg">
<path d="M11.4 1.5H3.60081C2.16797 1.5 1 2.66716 1 4.1V11.8992C1 13.332 2.16797 14.5 3.60081 14.5H11.4C12.8328 14.5 14 13.332 14 11.8992V4.1C14 2.66716 12.8328 1.5 11.4 1.5ZM7.93469 13.6327H3.60081C2.63272 13.6327 1.86694 12.8669 1.86694 11.8992V4.1C1.86694 3.13231 2.63272 2.36653 3.60081 2.36653H7.93469V13.6327ZM13.1327 11.8992C13.1327 12.8669 12.3677 13.6327 11.3996 13.6327H8.79878V8.42819H13.1327V11.8992ZM13.1327 7.56166H8.79878V2.36653H11.4C12.3681 2.36653 13.1331 3.13191 13.1331 4.1L13.1327 7.56166Z" fill="#D5D4DB"/>
</svg>
