<svg width="15" height="16" viewBox="0 0 15 16" fill="none" xmlns="http://www.w3.org/2000/svg">
<path fill-rule="evenodd" clip-rule="evenodd" d="M0 3.83716C0 1.76609 1.67894 0.0871582 3.75 0.0871582H11.25C13.321 0.0871582 15 1.76609 15 3.83716V11.3372C15 13.4082 13.321 15.0872 11.25 15.0872H3.75C1.67894 15.0872 0 13.4082 0 11.3372V3.83716ZM3.75 1.58716C2.50736 1.58716 1.5 2.59452 1.5 3.83716V11.3372C1.5 12.5798 2.50736 13.5872 3.75 13.5872H11.25C12.4927 13.5872 13.5 12.5798 13.5 11.3372V3.83716C13.5 2.59452 12.4927 1.58716 11.25 1.58716H3.75Z" fill="white"/>
<path fill-rule="evenodd" clip-rule="evenodd" d="M10.5 8.33716C10.9142 8.33716 11.25 8.67293 11.25 9.08716V10.5872C11.25 11.0014 10.9142 11.3372 10.5 11.3372C10.0858 11.3372 9.75 11.0014 9.75 10.5872V9.08716C9.75 8.67293 10.0858 8.33716 10.5 8.33716Z" fill="white"/>
<path fill-rule="evenodd" clip-rule="evenodd" d="M4.5 3.83716C4.91421 3.83716 5.25 4.17295 5.25 4.58716V10.5872C5.25 11.0014 4.91421 11.3372 4.5 11.3372C4.08578 11.3372 3.75 11.0014 3.75 10.5872V4.58716C3.75 4.17295 4.08579 3.83716 4.5 3.83716Z" fill="white"/>
<path fill-rule="evenodd" clip-rule="evenodd" d="M7.5 6.08716C7.91422 6.08716 8.25 6.42293 8.25 6.83716V10.5872C8.25 11.0014 7.91422 11.3372 7.5 11.3372C7.08578 11.3372 6.75 11.0014 6.75 10.5872V6.83716C6.75 6.42293 7.08578 6.08716 7.5 6.08716Z" fill="white"/>
</svg>
