<svg width="20" height="20" viewBox="0 0 20 20" fill="none" xmlns="http://www.w3.org/2000/svg">
<path d="M15.0001 10.8334H10.8334V15.0001C10.8334 15.4584 10.4584 15.8334 10.0001 15.8334C9.54175 15.8334 9.16675 15.4584 9.16675 15.0001V10.8334H5.00008C4.54175 10.8334 4.16675 10.4584 4.16675 10.0001C4.16675 9.54175 4.54175 9.16675 5.00008 9.16675H9.16675V5.00008C9.16675 4.54175 9.54175 4.16675 10.0001 4.16675C10.4584 4.16675 10.8334 4.54175 10.8334 5.00008V9.16675H15.0001C15.4584 9.16675 15.8334 9.54175 15.8334 10.0001C15.8334 10.4584 15.4584 10.8334 15.0001 10.8334Z" fill="black"/>
</svg>
