<svg width="60" height="60" viewBox="0 0 60 60" fill="none" xmlns="http://www.w3.org/2000/svg">
<path d="M52.5 13.125H25.9275L32.6512 6.40125L30 3.75L18.75 15L30 26.25L32.6512 23.5988L25.9275 16.875H52.5V37.5H22.3106C21.9398 35.7003 21.0498 34.0488 19.7505 32.7495C18.4512 31.4502 16.7997 30.5602 15 30.1894V3.75H11.25V30.1894C9.13171 30.6206 7.22755 31.7707 5.85991 33.4448C4.49227 35.1189 3.74521 37.2142 3.74521 39.3759C3.74521 41.5377 4.49227 43.633 5.85991 45.3071C7.22755 46.9812 9.13171 48.1313 11.25 48.5625V56.25H15V48.5606C16.7997 48.1898 18.4512 47.2998 19.7505 46.0005C21.0498 44.7012 21.9398 43.0497 22.3106 41.25H52.5C53.4943 41.249 54.4475 40.8536 55.1506 40.1506C55.8536 39.4475 56.249 38.4943 56.25 37.5V16.875C56.249 15.8807 55.8536 14.9275 55.1506 14.2244C54.4475 13.5214 53.4943 13.126 52.5 13.125ZM13.125 45C12.0125 45 10.9249 44.6701 9.99991 44.052C9.07489 43.4339 8.35392 42.5554 7.92817 41.5276C7.50243 40.4998 7.39104 39.3688 7.60808 38.2776C7.82512 37.1865 8.36085 36.1842 9.14752 35.3975C9.93419 34.6109 10.9365 34.0751 12.0276 33.8581C13.1188 33.641 14.2498 33.7524 15.2776 34.1782C16.3054 34.6039 17.1839 35.3249 17.802 36.2499C18.4201 37.1749 18.75 38.2625 18.75 39.375C18.7485 40.8664 18.1554 42.2963 17.1008 43.3508C16.0463 44.4054 14.6164 44.9985 13.125 45Z" fill="#4D2DED"/>
</svg>
