<svg width="61" height="60" viewBox="0 0 61 60" fill="none" xmlns="http://www.w3.org/2000/svg">
<g clip-path="url(#clip0_11_8276)">
<path fill-rule="evenodd" clip-rule="evenodd" d="M40.4301 27.5239C41.5105 27.5239 42.55 27.6552 43.5473 27.9001C43.6633 27.4606 43.5578 26.9685 43.2355 26.6204L33.6578 17.0462C33.1527 16.5364 32.3008 16.5212 31.7746 17.0064L17.4367 31.3478C16.9141 31.8692 16.9141 32.7446 17.4367 33.2661L26.9793 42.8087C27.1703 43.0009 27.4094 43.1228 27.659 43.1731C27.4867 42.3282 27.3965 41.454 27.3965 40.5575C27.3965 36.9587 28.8555 33.6997 31.2144 31.3419C33.5723 28.9841 36.8312 27.5239 40.4301 27.5239ZM45.6754 38.5091C46.1559 38.5091 46.5484 38.9017 46.5484 39.381V41.7341C46.5484 42.2146 46.1559 42.6071 45.6754 42.6071H35.1883C34.7066 42.6071 34.3152 42.2146 34.3152 41.7341V39.381C34.3152 38.9017 34.7066 38.5091 35.1883 38.5091H45.6754ZM45.3437 28.4825C46.4887 28.9478 47.548 29.5712 48.5043 30.3271L52.0703 26.761C51.9789 26.7142 51.891 26.6509 51.8066 26.5665L50.4203 25.1802C50.3828 25.1427 50.3559 25.1099 50.3254 25.0712C49.6105 24.0704 50.9699 22.9548 51.8066 23.7915L53.1941 25.179C53.2305 25.2153 53.2574 25.2493 53.2879 25.288C53.3254 25.3407 53.3582 25.3946 53.384 25.4485L58.2543 20.5771C58.5437 20.3333 58.5273 19.8247 58.273 19.5704L53.8539 15.1513C53.3375 15.3835 52.7931 15.5477 52.2344 15.6399C47.0875 16.4872 43.1922 11.2677 45.284 6.58018L40.8672 2.16338C40.5871 1.88331 40.1172 1.88682 39.8406 2.16338L34.9937 7.00909C35.0523 7.04776 35.1086 7.09346 35.1625 7.14854L36.55 8.53604C36.5863 8.57237 36.6133 8.60518 36.6437 8.64385C37.3586 9.64463 36.0004 10.7603 35.1625 9.92237L33.7762 8.53604C33.7398 8.49971 33.7129 8.46573 33.6824 8.42706L33.6402 8.36378L8.74257 33.2603C8.82578 33.3048 8.90781 33.3669 8.98515 33.4442L10.3715 34.8306C10.4078 34.8669 10.4348 34.9009 10.4652 34.9384C11.1801 35.9392 9.82187 37.0536 8.98515 36.2169L7.59765 34.8306C7.56132 34.7931 7.53437 34.7603 7.50273 34.7216C7.47109 34.6759 7.44297 34.629 7.41836 34.5845L2.56328 39.4407C2.28789 39.7114 2.29023 40.1942 2.56328 40.4673L6.9414 44.8454C7.46172 44.5888 8.01367 44.4024 8.575 44.2958C13.0961 43.4251 16.975 47.4048 16.1219 51.8438C16.0134 52.4107 15.8285 52.9603 15.5723 53.4774L19.9504 57.8544C20.2293 58.1356 20.7004 58.131 20.9769 57.8544L25.818 53.0146C25.7523 52.9724 25.6891 52.922 25.6281 52.861L24.2406 51.4747C24.2055 51.4372 24.1785 51.4044 24.1469 51.3657C23.4332 50.3649 24.7902 49.2505 25.6281 50.0872L27.0144 51.4747C27.0519 51.5099 27.0777 51.545 27.1094 51.5825L27.1644 51.6681L30.1996 48.6329C29.3699 47.5653 28.6867 46.3724 28.2027 45.0774C27.2828 45.1513 26.3371 44.8396 25.6422 44.1446L16.0996 34.6021C14.8434 33.3458 14.8434 31.2681 16.0996 30.0106L30.4633 15.6528C31.7266 14.4482 33.7527 14.4728 34.9891 15.7067L44.5914 25.3091C45.4152 26.1786 45.6648 27.3997 45.3437 28.4825ZM49.9328 31.6384C52.1207 33.9692 53.4637 37.1075 53.4637 40.5575C53.4637 44.1563 52.0047 47.4153 49.6469 49.7731C47.2891 52.131 44.0277 53.5911 40.4301 53.5911C36.9801 53.5911 33.8406 52.247 31.5098 50.0591L22.3457 59.2243L22.2836 59.2665C21.2535 60.2579 19.5848 60.2439 18.5641 59.2243L13.6668 54.3282C13.3422 54.0036 13.3035 53.4821 13.5508 53.1001C13.8367 52.6606 14.0441 52.1814 14.1637 51.688C14.943 48.4501 12.0519 45.4196 8.72968 46.2165C8.24687 46.3314 7.77226 46.5341 7.34218 46.8095C7.15738 46.9472 6.92954 47.0146 6.69954 46.9996C6.46953 46.9846 6.25241 46.8881 6.08711 46.7274L1.17578 41.8185C0.153903 40.7954 0.133981 39.1067 1.16406 38.0673L38.4543 0.775884C39.4832 -0.253022 41.1789 -0.263569 42.2184 0.775884L47.1508 5.70713C47.4602 6.01768 47.5105 6.51807 47.2902 6.8919C45.2242 10.179 48.1773 14.4728 52.0738 13.663C52.5519 13.5622 53.0219 13.3829 53.4543 13.1274C53.8469 12.8814 54.3601 12.9177 54.6918 13.2493L59.6242 18.1817C60.659 19.2153 60.659 20.9122 59.6242 21.9458L49.9328 31.6384ZM39.325 11.3099C38.4859 10.4732 37.1289 11.5876 37.8426 12.5884C37.8742 12.6259 37.9012 12.661 37.9363 12.6962L39.3238 14.0837C40.1617 14.9216 41.5199 13.806 40.8051 12.8052C40.7746 12.7665 40.7477 12.7337 40.7113 12.6962L39.325 11.3099ZM43.4851 15.47C42.6484 14.6333 41.2891 15.7478 42.0039 16.7497C42.0344 16.7872 42.0613 16.8212 42.0977 16.8575L43.4851 18.245C44.3219 19.0817 45.6812 17.9661 44.9652 16.9665C44.9359 16.9278 44.909 16.8939 44.8715 16.8575L43.4851 15.47ZM47.6465 19.6314C46.8086 18.7946 45.4492 19.9103 46.1652 20.9099C46.1957 20.9474 46.2226 20.9825 46.259 21.0189L47.6453 22.4052C48.4832 23.2431 49.8414 22.1274 49.1277 21.1267C49.0961 21.0892 49.0691 21.054 49.0328 21.0189L47.6465 19.6314ZM13.1453 37.6044C12.3086 36.7665 10.9504 37.8821 11.6652 38.8829C11.6957 38.9204 11.7227 38.9556 11.759 38.9907L13.1453 40.3771C13.982 41.2161 15.3414 40.1005 14.6266 39.1009C14.5961 39.061 14.5691 39.0282 14.5316 38.9919L13.1453 37.6044ZM17.3066 41.7657C16.4687 40.929 15.1105 42.0423 15.8254 43.0442C15.8559 43.0817 15.8828 43.1157 15.9203 43.1521L17.3066 44.5396C18.1434 45.3763 19.5016 44.2606 18.7879 43.261C18.7562 43.2224 18.7293 43.1884 18.6941 43.1521L17.3066 41.7657ZM21.4668 45.9259C20.6301 45.0892 19.273 46.2036 19.9867 47.2044C20.0172 47.2419 20.0441 47.2771 20.0805 47.3122L21.4668 48.6997C22.3047 49.5364 23.6629 48.422 22.948 47.4224C22.9176 47.3825 22.8906 47.3497 22.8543 47.3122L21.4668 45.9259ZM40.4301 29.4856C46.5461 29.4856 51.5031 34.4427 51.5031 40.5575C51.5031 46.6724 46.5461 51.6294 40.4301 51.6294C34.3152 51.6294 29.3582 46.6724 29.3582 40.5575C29.3582 34.4427 34.3152 29.4856 40.4301 29.4856Z" fill="#4D2EED"/>
</g>
<defs>
<clipPath id="clip0_11_8276">
<rect width="60" height="60" fill="white" transform="translate(0.399902)"/>
</clipPath>
</defs>
</svg>
