<svg width="18" height="18" viewBox="0 0 18 18" fill="none" xmlns="http://www.w3.org/2000/svg">
<path d="M9.40155 5.09855C8.87578 5.00296 8.33315 5.09762 7.87081 5.36559C7.40846 5.63355 7.05659 6.05733 6.87817 6.56105C6.83167 6.70072 6.84177 6.85306 6.90631 6.98536C6.97085 7.11767 7.08469 7.2194 7.22339 7.26873C7.36209 7.31805 7.5146 7.31104 7.64819 7.24919C7.78177 7.18735 7.88579 7.0756 7.93792 6.93793C8.00032 6.76117 8.1059 6.6028 8.24506 6.47722C8.38423 6.35164 8.55257 6.26282 8.73478 6.21883C8.917 6.17485 9.10732 6.1771 9.28845 6.22537C9.46958 6.27363 9.63578 6.3664 9.77194 6.49523C9.9081 6.62406 10.0099 6.78487 10.0681 6.96305C10.1263 7.14123 10.1391 7.33114 10.1053 7.51551C10.0714 7.69988 9.99206 7.87287 9.87437 8.01877C9.75668 8.16467 9.60439 8.27884 9.43136 8.35093C9.13201 8.47985 8.87771 8.69481 8.70074 8.96852C8.52378 9.24223 8.43213 9.56235 8.43742 9.88824V10.1251C8.43742 10.2742 8.49668 10.4173 8.60217 10.5228C8.70766 10.6283 8.85074 10.6876 8.99992 10.6876C9.1491 10.6876 9.29218 10.6283 9.39767 10.5228C9.50316 10.4173 9.56242 10.2742 9.56242 10.1251V9.8888C9.55858 9.7858 9.58477 9.6839 9.6378 9.59552C9.69083 9.50713 9.76842 9.43607 9.86111 9.39099C10.337 9.19615 10.7313 8.8434 10.9776 8.39204C11.224 7.94068 11.3074 7.41826 11.2139 6.91261C11.1309 6.46233 10.9133 6.04784 10.5896 5.72393C10.266 5.40002 9.85175 5.18195 9.40155 5.09855Z" fill="#111928"/>
<path d="M9 11.25C8.85082 11.25 8.70774 11.3093 8.60225 11.4148C8.49676 11.5202 8.4375 11.6633 8.4375 11.8125V12.375C8.4375 12.5242 8.49676 12.6673 8.60225 12.7727C8.70774 12.8782 8.85082 12.9375 9 12.9375C9.14918 12.9375 9.29226 12.8782 9.39775 12.7727C9.50324 12.6673 9.5625 12.5242 9.5625 12.375V11.8125C9.5625 11.6633 9.50324 11.5202 9.39775 11.4148C9.29226 11.3093 9.14918 11.25 9 11.25Z" fill="#111928"/>
<path d="M9.00003 1.125C7.83983 1.12532 6.69403 1.38199 5.64457 1.87666C4.59511 2.37133 3.66791 3.09178 2.92928 3.98648C2.19066 4.88119 1.65885 5.92805 1.37188 7.0522C1.08492 8.17636 1.04989 9.35003 1.26931 10.4893C1.48872 11.6286 1.95715 12.7053 2.64111 13.6424C3.32507 14.5796 4.20765 15.3541 5.22575 15.9104C6.24384 16.4668 7.37229 16.7913 8.53041 16.8609C9.68853 16.9304 10.8477 16.7431 11.925 16.3125H15.75C15.8992 16.3125 16.0423 16.2532 16.1478 16.1477C16.2533 16.0423 16.3125 15.8992 16.3125 15.75V11.925C16.7906 10.73 16.9684 9.43613 16.8306 8.15651C16.6927 6.87688 16.2434 5.65054 15.5218 4.58482C14.8002 3.5191 13.8284 2.64648 12.6915 2.04332C11.5545 1.44016 10.2871 1.12486 9.00003 1.125ZM15.2308 11.5965C15.2023 11.6649 15.1876 11.7383 15.1875 11.8125V15.1875H11.8125C11.7382 15.1875 11.6646 15.2022 11.596 15.2308C10.1533 15.832 8.54679 15.9139 7.05048 15.4626C5.55418 15.0113 4.26084 14.0548 3.39117 12.7562C2.5215 11.4576 2.12939 9.89752 2.28175 8.34209C2.43412 6.78665 3.12151 5.33228 4.22663 4.22716C5.33175 3.12204 6.78612 2.43465 8.34156 2.28228C9.89699 2.12992 11.4571 2.52203 12.7557 3.3917C14.0542 4.26137 15.0108 5.55471 15.4621 7.05101C15.9134 8.54732 15.832 10.1539 15.2308 11.5965Z" fill="#111928"/>
</svg>
