<svg width="16" height="16" viewBox="0 0 16 16" fill="none" xmlns="http://www.w3.org/2000/svg">
<path d="M9 3.2187V1L6 3.95827L9 6.91653V4.69783C11.4825 4.69783 13.5 6.68727 13.5 9.13523C13.5 11.3317 11.8725 13.1511 9.75 13.5061V15C12.7125 14.6376 15 12.1527 15 9.13523C15 5.86635 12.315 3.2187 9 3.2187ZM4.5 9.13523C4.5 7.91495 5.0025 6.8056 5.82 5.99947L4.755 4.94929C3.63105 6.06045 2.9999 7.56583 3 9.13523C3 12.1527 5.2875 14.6376 8.25 15V13.5061C6.1275 13.1511 4.5 11.3317 4.5 9.13523Z" fill="black"/>
</svg>
