<svg width="22" height="22" viewBox="0 0 22 22" fill="none" xmlns="http://www.w3.org/2000/svg">
<path d="M10.5 5C9.01664 5 7.56659 5.43987 6.33323 6.26398C5.09986 7.08809 4.13856 8.25943 3.57091 9.62987C3.00325 11.0003 2.85472 12.5083 3.14411 13.9632C3.4335 15.418 4.14781 16.7544 5.1967 17.8033C6.2456 18.8522 7.58197 19.5665 9.03682 19.8559C10.4917 20.1453 11.9997 19.9967 13.3701 19.4291C14.7406 18.8614 15.9119 17.9001 16.736 16.6668C17.5601 15.4334 18 13.9834 18 12.5C18 10.5109 17.2098 8.60322 15.8033 7.1967C14.3968 5.79018 12.4891 5 10.5 5ZM9.42857 15.4946L6.75 12.8161L7.60179 11.9643L9.42857 13.7911L13.3982 9.82143L14.2532 10.6711L9.42857 15.4946Z" fill="#14B8A6"/>
</svg>
