<svg width="16" height="16" viewBox="0 0 16 16" fill="none" xmlns="http://www.w3.org/2000/svg">
<path d="M6.21631 0.860107C7.64646 0.860107 8.99275 1.41722 10.0034 2.42944C11.0141 3.44194 11.5737 4.78539 11.5737 6.21753C11.5737 7.41383 11.1839 8.55092 10.4644 9.4812L15.1021 14.1189C15.1157 14.1325 15.1269 14.149 15.1343 14.1667C15.1415 14.1844 15.145 14.2034 15.145 14.2224C15.145 14.2416 15.1416 14.2613 15.1343 14.2791C15.1269 14.2967 15.1156 14.3124 15.1021 14.3259L14.3237 15.1033C14.3101 15.1169 14.2936 15.1272 14.2759 15.1345C14.2582 15.1419 14.2394 15.1462 14.2202 15.1462C14.201 15.1462 14.1813 15.1419 14.1636 15.1345C14.1461 15.1272 14.1301 15.1167 14.1167 15.1033L9.479 10.4675C8.54865 11.1854 7.41274 11.575 6.21631 11.575C4.78422 11.5749 3.43989 11.0171 2.4292 10.0046C1.41853 8.99397 0.858932 7.64782 0.858887 6.21753C0.858887 4.78539 1.4167 3.44016 2.4292 2.42944C3.43986 1.41898 4.78615 0.860125 6.21631 0.860107ZM6.21631 2.21753C5.14865 2.21755 4.14527 2.63332 3.38818 3.38843C2.63283 4.14378 2.21631 5.14967 2.21631 6.21753C2.21635 7.28532 2.63287 8.28855 3.38818 9.04565C4.1453 9.80096 5.1485 10.2175 6.21631 10.2175C7.28417 10.2175 8.28827 9.80101 9.04541 9.04565C9.80049 8.29038 10.2163 7.28515 10.2163 6.21753C10.2163 5.1497 9.80073 4.14556 9.04541 3.38843C8.29005 2.63128 7.28417 2.21753 6.21631 2.21753Z" fill="black" fill-opacity="0.45"/>
</svg>
