<svg width="60" height="60" viewBox="0 0 60 60" fill="none" xmlns="http://www.w3.org/2000/svg">
<path d="M50.625 31.4249V28.5562L54.225 25.4062C54.8886 24.8212 55.3241 24.0206 55.4544 23.1457C55.5848 22.2707 55.4017 21.3779 54.9375 20.6249L50.5125 13.1249C50.1837 12.5554 49.7109 12.0824 49.1416 11.7533C48.5722 11.4242 47.9263 11.2506 47.2687 11.2499C46.8612 11.2468 46.4559 11.3101 46.0687 11.4374L41.5125 12.9749C40.7258 12.4522 39.9053 11.9824 39.0562 11.5687L38.1 6.84366C37.9285 5.98042 37.4589 5.20498 36.7733 4.6531C36.0878 4.10122 35.2299 3.80804 34.35 3.82491H25.575C24.695 3.80804 23.8372 4.10122 23.1516 4.6531C22.4661 5.20498 21.9964 5.98042 21.825 6.84366L20.8687 11.5687C20.0136 11.9823 19.1868 12.4521 18.3937 12.9749L13.9312 11.3624C13.5399 11.2605 13.1347 11.2225 12.7312 11.2499C12.0736 11.2506 11.4278 11.4242 10.8584 11.7533C10.2891 12.0824 9.81629 12.5554 9.48748 13.1249L5.06249 20.6249C4.62484 21.3768 4.46221 22.2574 4.60245 23.116C4.7427 23.9745 5.17709 24.7576 5.83124 25.3312L9.37498 28.5749V31.4437L5.83124 34.5937C5.15861 35.1712 4.71234 35.9683 4.57161 36.8436C4.43088 37.7188 4.60479 38.6157 5.06249 39.3749L9.48748 46.8749C9.81629 47.4444 10.2891 47.9174 10.8584 48.2465C11.4278 48.5756 12.0736 48.7492 12.7312 48.7499C13.1388 48.753 13.5441 48.6897 13.9312 48.5624L18.4875 47.0249C19.2741 47.5476 20.0947 48.0174 20.9437 48.4312L21.9 53.1562C22.0714 54.0194 22.5411 54.7948 23.2266 55.3467C23.9122 55.8986 24.77 56.1918 25.65 56.1749H34.5C35.3799 56.1918 36.2378 55.8986 36.9233 55.3467C37.6089 54.7948 38.0785 54.0194 38.25 53.1562L39.2062 48.4312C40.0614 48.0175 40.8882 47.5477 41.6812 47.0249L46.2187 48.5624C46.6059 48.6897 47.0112 48.753 47.4187 48.7499C48.0763 48.7492 48.7222 48.5756 49.2915 48.2465C49.8609 47.9174 50.3337 47.4444 50.6625 46.8749L54.9375 39.3749C55.3751 38.6231 55.5378 37.7424 55.3975 36.8838C55.2573 36.0253 54.8229 35.2422 54.1687 34.6687L50.625 31.4249ZM47.2687 44.9999L40.8375 42.8249C39.332 44.1001 37.6114 45.0969 35.7562 45.7687L34.425 52.4999H25.575L24.2437 45.8437C22.4033 45.1529 20.692 44.1578 19.1812 42.8999L12.7312 44.9999L8.30623 37.4999L13.4062 32.9999C13.0595 31.059 13.0595 29.072 13.4062 27.1312L8.30623 22.4999L12.7312 14.9999L19.1625 17.1749C20.668 15.8997 22.3886 14.9029 24.2437 14.2312L25.575 7.49991H34.425L35.7562 14.1562C37.5967 14.8469 39.308 15.842 40.8187 17.0999L47.2687 14.9999L51.6937 22.4999L46.5937 26.9999C46.9404 28.9408 46.9404 30.9278 46.5937 32.8687L51.6937 37.4999L47.2687 44.9999Z" fill="#4B39A6"/>
<path d="M30 41.25C27.775 41.25 25.5999 40.5902 23.7498 39.354C21.8998 38.1179 20.4578 36.3609 19.6064 34.3052C18.7549 32.2495 18.5321 29.9875 18.9662 27.8052C19.4003 25.623 20.4717 23.6184 22.0451 22.0451C23.6184 20.4717 25.623 19.4003 27.8052 18.9662C29.9875 18.5321 32.2495 18.7549 34.3052 19.6064C36.3609 20.4578 38.1179 21.8998 39.354 23.7498C40.5902 25.5999 41.25 27.775 41.25 30C41.265 31.4816 40.9843 32.9512 40.4243 34.3229C39.8643 35.6946 39.0361 36.9408 37.9885 37.9885C36.9408 39.0361 35.6946 39.8643 34.3229 40.4243C32.9512 40.9843 31.4816 41.265 30 41.25ZM30 22.5C29.0088 22.4769 28.0232 22.6551 27.1028 23.0239C26.1824 23.3926 25.3464 23.9442 24.6453 24.6453C23.9442 25.3464 23.3926 26.1824 23.0239 27.1028C22.6551 28.0232 22.4769 29.0088 22.5 30C22.4769 30.9912 22.6551 31.9768 23.0239 32.8972C23.3926 33.8176 23.9442 34.6536 24.6453 35.3547C25.3464 36.0558 26.1824 36.6074 27.1028 36.9761C28.0232 37.3449 29.0088 37.5231 30 37.5C30.9912 37.5231 31.9768 37.3449 32.8972 36.9761C33.8176 36.6074 34.6536 36.0558 35.3547 35.3547C36.0558 34.6536 36.6074 33.8176 36.9761 32.8972C37.3449 31.9768 37.5231 30.9912 37.5 30C37.5231 29.0088 37.3449 28.0232 36.9761 27.1028C36.6074 26.1824 36.0558 25.3464 35.3547 24.6453C34.6536 23.9442 33.8176 23.3926 32.8972 23.0239C31.9768 22.6551 30.9912 22.4769 30 22.5Z" fill="#4B39A6"/>
</svg>
