<svg width="60" height="60" viewBox="0 0 60 60" fill="none" xmlns="http://www.w3.org/2000/svg">
<path d="M52.5 3.75H30C29.0057 3.75099 28.0525 4.1464 27.3494 4.84945C26.6464 5.55249 26.251 6.50574 26.25 7.5V26.25H7.5C6.50574 26.251 5.55249 26.6464 4.84945 27.3494C4.1464 28.0525 3.75099 29.0057 3.75 30V56.25H56.25V7.5C56.249 6.50574 55.8536 5.55249 55.1506 4.84945C54.4475 4.1464 53.4943 3.75099 52.5 3.75ZM16.875 52.5V39.375H24.375V52.5H16.875ZM52.5 52.5H28.125V37.5C28.125 37.0027 27.9275 36.5258 27.5758 36.1742C27.2242 35.8225 26.7473 35.625 26.25 35.625H15C14.5027 35.625 14.0258 35.8225 13.6742 36.1742C13.3225 36.5258 13.125 37.0027 13.125 37.5V52.5H7.5V30H30V7.5H52.5V52.5Z" fill="#4D2DED"/>
<path d="M33.75 15H37.5V18.75H33.75V15ZM45 15H48.75V18.75H45V15ZM33.75 26.25H37.5V30H33.75V26.25ZM45 26.25H48.75V30H45V26.25ZM33.75 37.5H37.5V41.25H33.75V37.5ZM45 37.5H48.75V41.25H45V37.5Z" fill="#4D2DED"/>
</svg>
