<svg width="60" height="60" viewBox="0 0 60 60" fill="none" xmlns="http://www.w3.org/2000/svg">
<path d="M20.625 39.375L13.125 35.25V26.8125L20.625 22.6875L28.125 26.8125V35.25L20.625 39.375ZM16.875 33L20.625 35.0625L24.375 33V28.875L20.625 26.8125L16.875 28.875V33ZM11.25 56.25L3.75 52.125V43.6875L11.25 39.375L18.75 43.5V51.9375L11.25 56.25ZM7.5 49.875L11.25 51.9375L15 49.875V45.75L11.25 43.6875L7.5 45.75V49.875ZM30 56.25L22.5 52.125V43.6875L30 39.5625L37.5 43.6875V52.125L30 56.25ZM26.25 49.875L30 51.9375L33.75 49.875V45.75L30 43.6875L26.25 45.75V49.875ZM48.75 56.25L41.25 52.125V43.6875L48.75 39.5625L56.25 43.6875V52.125L48.75 56.25ZM45 49.875L48.75 51.9375L52.5 49.875V45.75L48.75 43.6875L45 45.75V49.875ZM46.125 21.75L41.25 26.625V17.625L46.875 14.4375V6L39.375 1.875L31.875 6V14.4375L37.5 17.625V26.4375L32.625 21.5625L30 24.375L39.375 33.75L48.75 24.375L46.125 21.75ZM35.625 8.25L39.375 6.1875L43.125 8.25V12.375L39.375 14.4375L35.625 12.375V8.25Z" fill="#4D2DED"/>
</svg>
