<svg width="20" height="20" viewBox="0 0 20 20" fill="none" xmlns="http://www.w3.org/2000/svg">
<path d="M17.3187 5.80626L14.1937 2.68126C14.1353 2.62333 14.0661 2.57751 13.9899 2.5464C13.9138 2.5153 13.8323 2.49953 13.75 2.50001H3.75C3.41848 2.50001 3.10054 2.63171 2.86612 2.86613C2.6317 3.10055 2.5 3.41849 2.5 3.75001V16.25C2.5 16.5815 2.6317 16.8995 2.86612 17.1339C3.10054 17.3683 3.41848 17.5 3.75 17.5H16.25C16.5815 17.5 16.8995 17.3683 17.1339 17.1339C17.3683 16.8995 17.5 16.5815 17.5 16.25V6.25001C17.5005 6.16776 17.4847 6.08622 17.4536 6.01007C17.4225 5.93392 17.3767 5.86466 17.3187 5.80626ZM7.5 3.75001H12.5V6.25001H7.5V3.75001ZM12.5 16.25H7.5V11.25H12.5V16.25ZM13.75 16.25V11.25C13.75 10.9185 13.6183 10.6005 13.3839 10.3661C13.1495 10.1317 12.8315 10 12.5 10H7.5C7.16848 10 6.85054 10.1317 6.61612 10.3661C6.3817 10.6005 6.25 10.9185 6.25 11.25V16.25H3.75V3.75001H6.25V6.25001C6.25 6.58153 6.3817 6.89947 6.61612 7.13389C6.85054 7.36831 7.16848 7.50001 7.5 7.50001H12.5C12.8315 7.50001 13.1495 7.36831 13.3839 7.13389C13.6183 6.89947 13.75 6.58153 13.75 6.25001V4.00626L16.25 6.50626V16.25H13.75Z" fill="black"/>
</svg>
